<svg width="14" height="14" viewBox="0 0 14 14" fill="none" xmlns="http://www.w3.org/2000/svg">
<g id="Group 1321316628">
<path id="Star 55" d="M4.875 0C4.875 0 5.14398 2.75673 6.19169 3.90716C7.23941 5.05759 9.75 5.35294 9.75 5.35294C9.75 5.35294 7.23941 5.64829 6.19169 6.79872C5.14398 7.94915 4.875 10.7059 4.875 10.7059C4.875 10.7059 4.60602 7.94915 3.55831 6.79872C2.51059 5.64829 0 5.35294 0 5.35294C0 5.35294 2.51059 5.05759 3.55831 3.90716C4.60602 2.75673 4.875 0 4.875 0Z" fill="black"/>
<path id="Star 56" d="M10.8752 7.13721C10.8752 7.13721 11.0476 8.90434 11.7192 9.6418C12.3908 10.3793 14.0002 10.5686 14.0002 10.5686C14.0002 10.5686 12.3908 10.7579 11.7192 11.4954C11.0476 12.2328 10.8752 14 10.8752 14C10.8752 14 10.7027 12.2328 10.0311 11.4954C9.35951 10.7579 7.75015 10.5686 7.75015 10.5686C7.75015 10.5686 9.35951 10.3793 10.0311 9.6418C10.7027 8.90434 10.8752 7.13721 10.8752 7.13721Z" fill="black"/>
</g>
</svg>
