<svg width="14" height="13" viewBox="0 0 14 13" fill="none" xmlns="http://www.w3.org/2000/svg">
<path d="M2.04403 3.59981C2.56041 2.7054 3.31407 1.97122 4.22168 1.47843C5.12929 0.985637 6.1555 0.75343 7.18685 0.807481C8.2182 0.861532 9.21452 1.19974 10.0656 1.7847C10.9168 2.36966 11.5896 3.1786 12.0096 4.12208M0.756042 1.86056L1.26663 4.07224C1.35359 4.44893 1.72946 4.6838 2.10615 4.59684L4.31783 4.08625M11.7435 9.19973C11.2272 10.0941 10.4735 10.8283 9.56589 11.3211C8.65827 11.8139 7.63207 12.0461 6.60072 11.9921C5.56937 11.938 4.57305 11.5998 3.72192 11.0148C2.87079 10.4299 2.19801 9.62093 1.77794 8.67746M13.0315 10.939L12.5209 8.7273C12.434 8.35061 12.0581 8.11574 11.6814 8.2027L9.46974 8.71329" stroke="white" stroke-width="1.05" stroke-linecap="round"/>
</svg>
