<svg width="18" height="18" viewBox="0 0 18 18" fill="none" xmlns="http://www.w3.org/2000/svg">
<circle cx="2.25" cy="2.25" r="2.25" transform="matrix(-1 0 0 1 11.25 6.75)" stroke="#C3C3C3" stroke-width="1.125"/>
<path d="M12.3752 3.70312L12.6565 3.21599L12.3752 3.70312ZM12.3752 14.2966L12.094 13.8095H12.094L12.3752 14.2966ZM5.62523 14.2966L5.90648 13.8095V13.8095L5.62523 14.2966ZM5.62523 3.70312L5.90648 4.19026L5.62523 3.70312ZM3.98409 14.0552L4.11323 14.6026L3.98409 14.0552ZM3.30243 13.8773L2.87527 14.2433L3.30243 13.8773ZM7.15465 16.2712L7.29263 15.7259L7.15465 16.2712ZM11.308 15.7386L10.7599 15.6119L11.308 15.7386ZM14.6979 13.8772L14.2708 13.5113L14.6979 13.8772ZM14.0163 14.0551L14.1454 13.5077L14.0163 14.0551ZM16.083 6.52717L15.5519 6.71257L16.083 6.52717ZM15.8204 7.26265L16.178 7.69677L15.8204 7.26265ZM2.17999 10.7374L2.53768 11.1715L2.17999 10.7374ZM14.6977 4.12252L14.2706 4.48853L14.6977 4.12252ZM3.30263 4.1225L2.87549 3.7565L3.30263 4.1225ZM15.8204 10.7374L16.178 10.3032L15.8204 10.7374ZM11.308 2.26133L10.76 2.38813L11.308 2.26133ZM10.8459 1.72881L10.9839 1.1835L10.8459 1.72881ZM10.76 2.38813C10.9294 3.12003 11.3911 3.78444 12.094 4.19026L12.6565 3.21599C12.2347 2.97247 11.9581 2.57535 11.856 2.13452L10.76 2.38813ZM12.094 4.19026C12.7397 4.56306 13.473 4.6506 14.1452 4.49211L13.8871 3.39713C13.4827 3.49248 13.0443 3.43988 12.6565 3.21599L12.094 4.19026ZM16.614 6.34177C16.2798 5.38452 15.7705 4.51002 15.1249 3.75652L14.2706 4.48853C14.8267 5.13752 15.2647 5.88996 15.5519 6.71257L16.614 6.34177ZM15.5627 9C15.5627 8.47548 15.8013 8.00717 16.178 7.69677L15.4627 6.82852C14.8377 7.34346 14.4377 8.12525 14.4377 9H15.5627ZM16.178 10.3032C15.8013 9.99283 15.5627 9.52452 15.5627 9H14.4377C14.4377 9.87475 14.8377 10.6565 15.4627 11.1715L16.178 10.3032ZM15.1251 14.2432C15.7706 13.4898 16.2799 12.6154 16.614 11.6582L15.5519 11.2874C15.2647 12.1099 14.8268 12.8623 14.2708 13.5113L15.1251 14.2432ZM12.6565 14.7838C13.0443 14.5598 13.4828 14.5073 13.8872 14.6026L14.1454 13.5077C13.4732 13.3491 12.7397 13.4366 12.094 13.8095L12.6565 14.7838ZM11.856 15.8654C11.958 15.4245 12.2346 15.0273 12.6565 14.7838L12.094 13.8095C11.391 14.2153 10.9293 14.8799 10.7599 15.6119L11.856 15.8654ZM9.00018 17.0625C9.68396 17.0625 10.3486 16.9773 10.9838 16.8165L10.7078 15.7259C10.1621 15.864 9.59014 15.9375 9.00018 15.9375V17.0625ZM7.01667 16.8166C7.65181 16.9773 8.31644 17.0625 9.00018 17.0625V15.9375C8.41025 15.9375 7.8383 15.864 7.29263 15.7259L7.01667 16.8166ZM5.34398 14.7837C5.76581 15.0273 6.04247 15.4245 6.14445 15.8654L7.24051 15.6119C7.07121 14.8799 6.60948 14.2153 5.90648 13.8095L5.34398 14.7837ZM4.11323 14.6026C4.51764 14.5072 4.95614 14.5598 5.34398 14.7838L5.90648 13.8095C5.26069 13.4366 4.52723 13.3491 3.85496 13.5077L4.11323 14.6026ZM1.38633 11.6582C1.72047 12.6154 2.22972 13.4898 2.87527 14.2433L3.72958 13.5113C3.17356 12.8623 2.73561 12.11 2.44847 11.2874L1.38633 11.6582ZM2.43768 9C2.43768 9.52452 2.19904 9.99283 1.8223 10.3032L2.53768 11.1715C3.16266 10.6565 3.56268 9.87475 3.56268 9H2.43768ZM1.8223 7.69677C2.19904 8.00717 2.43768 8.47548 2.43768 9H3.56268C3.56268 8.12525 3.16266 7.34346 2.53768 6.82852L1.8223 7.69677ZM2.87549 3.7565C2.22983 4.51 1.72051 5.38451 1.38633 6.34177L2.44847 6.71256C2.73564 5.88995 3.17365 5.13751 3.72977 4.4885L2.87549 3.7565ZM5.34398 3.21599C4.95617 3.43989 4.51771 3.49248 4.11333 3.39712L3.85513 4.49209C4.52735 4.65061 5.26075 4.56308 5.90648 4.19026L5.34398 3.21599ZM6.14441 2.1345C6.04241 2.57534 5.76576 2.97247 5.34398 3.21599L5.90648 4.19026C6.60939 3.78444 7.0711 3.12002 7.24045 2.38811L6.14441 2.1345ZM9.00018 0.9375C8.31642 0.9375 7.65176 1.02274 7.0166 1.18346L7.29258 2.27409C7.83826 2.13601 8.41023 2.0625 9.00018 2.0625V0.9375ZM10.9839 1.1835C10.3487 1.02275 9.68398 0.9375 9.00018 0.9375V2.0625C9.59016 2.0625 10.1622 2.13602 10.7079 2.27412L10.9839 1.1835ZM7.24045 2.38811C7.25216 2.33751 7.272 2.30181 7.28739 2.28309C7.30061 2.26701 7.30296 2.27146 7.29258 2.27409L7.0166 1.18346C6.4982 1.31464 6.23052 1.76234 6.14441 2.1345L7.24045 2.38811ZM2.53768 6.82852C2.49202 6.7909 2.46548 6.75019 2.45483 6.72297C2.44588 6.70007 2.45247 6.7011 2.44847 6.71256L1.38633 6.34177C1.18682 6.91325 1.49593 7.42786 1.8223 7.69677L2.53768 6.82852ZM3.85496 13.5077C3.80453 13.5196 3.76383 13.5176 3.74023 13.5121C3.71994 13.5074 3.72273 13.5033 3.72958 13.5113L2.87527 14.2433C3.22257 14.6486 3.74155 14.6903 4.11323 14.6026L3.85496 13.5077ZM7.29263 15.7259C7.30303 15.7286 7.30067 15.733 7.28745 15.7169C7.27205 15.6982 7.25222 15.6625 7.24051 15.6119L6.14445 15.8654C6.23053 16.2376 6.49821 16.6854 7.01667 16.8166L7.29263 15.7259ZM10.7599 15.6119C10.7482 15.6625 10.7284 15.6982 10.713 15.7169C10.6998 15.733 10.6974 15.7285 10.7078 15.7259L10.9838 16.8165C11.5023 16.6853 11.7699 16.2376 11.856 15.8654L10.7599 15.6119ZM14.2708 13.5113C14.2776 13.5033 14.2804 13.5074 14.2601 13.5121C14.2365 13.5176 14.1958 13.5196 14.1454 13.5077L13.8872 14.6026C14.2589 14.6903 14.7778 14.6486 15.1251 14.2432L14.2708 13.5113ZM15.5519 6.71257C15.5479 6.7011 15.5545 6.70008 15.5455 6.72297C15.5349 6.7502 15.5083 6.7909 15.4627 6.82852L16.178 7.69677C16.5044 7.42786 16.8135 6.91326 16.614 6.34177L15.5519 6.71257ZM2.44847 11.2874C2.45247 11.2989 2.44588 11.2999 2.45483 11.277C2.46548 11.2498 2.49202 11.2091 2.53768 11.1715L1.8223 10.3032C1.49593 10.5721 1.18682 11.0867 1.38633 11.6582L2.44847 11.2874ZM14.1452 4.49211C14.1957 4.48022 14.2364 4.48218 14.26 4.48767C14.2802 4.4924 14.2775 4.49652 14.2706 4.48853L15.1249 3.75652C14.7776 3.35125 14.2587 3.30951 13.8871 3.39713L14.1452 4.49211ZM3.72977 4.4885C3.72292 4.4965 3.72013 4.49238 3.74042 4.48765C3.76401 4.48216 3.80471 4.4802 3.85513 4.49209L4.11333 3.39712C3.74168 3.30948 3.22276 3.35122 2.87549 3.7565L3.72977 4.4885ZM15.4627 11.1715C15.5083 11.2091 15.5349 11.2498 15.5455 11.277C15.5545 11.2999 15.5479 11.2989 15.5519 11.2874L16.614 11.6582C16.8135 11.0867 16.5044 10.5721 16.178 10.3032L15.4627 11.1715ZM11.856 2.13452C11.7699 1.76237 11.5023 1.31468 10.9839 1.1835L10.7079 2.27412C10.6975 2.27149 10.6999 2.26704 10.7131 2.28312C10.7285 2.30184 10.7483 2.33753 10.76 2.38813L11.856 2.13452Z" fill="#C3C3C3"/>
</svg>
