<svg width="42" height="42" viewBox="0 0 42 42" fill="none" xmlns="http://www.w3.org/2000/svg">
<path id="Star 1" d="M13.4053 1.37434C13.3556 0.533332 14.4856 0.168326 14.9372 0.879497L21.229 10.7863C21.5001 11.2132 22.1026 11.2901 22.487 10.9468L31.4066 2.98022C32.0469 2.40833 33.0299 3.04285 32.7393 3.84044L28.6904 14.9511C28.5159 15.4298 28.8236 15.9405 29.3327 16.0172L41.1481 17.7985C41.9963 17.9264 42.0921 19.0826 41.278 19.366L29.9374 23.3139C29.4487 23.484 29.2298 24.044 29.4803 24.4829L35.2943 34.6707C35.7117 35.4021 34.8482 36.2094 34.1236 35.7652L24.031 29.5775C23.5961 29.3109 23.0155 29.4985 22.8188 29.9691L18.2532 40.8918C17.9255 41.6759 16.7529 41.5263 16.6635 40.689L15.4188 29.0252C15.3652 28.5226 14.8601 28.1966 14.3642 28.3445L2.85713 31.777C2.03108 32.0235 1.43238 31.0297 2.04547 30.4298L10.586 22.0729C10.954 21.7128 10.9048 21.1187 10.4832 20.8325L0.699629 14.1901C-0.00269518 13.7133 0.423341 12.6236 1.2772 12.7129L13.1718 13.9559C13.6843 14.0094 14.128 13.5946 14.0982 13.0898L13.4053 1.37434Z" fill="white"/>
</svg>
