<svg width="28" height="28" viewBox="0 0 28 28" fill="none" xmlns="http://www.w3.org/2000/svg">
<g id="Swap 3">
<path id="Vector" d="M7.91066 10.7999C8.5377 9.71385 9.45285 8.82234 10.555 8.22395C11.6571 7.62556 12.9032 7.34359 14.1555 7.40922C15.4079 7.47486 16.6177 7.88553 17.6512 8.59585C18.6847 9.30616 19.5017 10.2884 20.0117 11.4341M6.34668 8.68796L6.96668 11.3736C7.07228 11.831 7.52869 12.1162 7.9861 12.0106L10.6717 11.3906M19.6886 17.5998C19.0616 18.6859 18.1464 19.5774 17.0443 20.1758C15.9422 20.7742 14.6961 21.0561 13.4438 20.9905C12.1914 20.9249 10.9816 20.5142 9.9481 19.8039C8.91459 19.0936 8.09763 18.1113 7.58756 16.9656M21.2526 19.7118L20.6326 17.0261C20.527 16.5687 20.0706 16.2835 19.6132 16.3891L16.9276 17.0091" stroke="white" stroke-width="1.275" stroke-linecap="round"/>
</g>
</svg>
